<svg width="64" height="26" viewBox="0 0 64 26" fill="none" xmlns="http://www.w3.org/2000/svg">
<path d="M2.63561 3.3729L8.50582 19.7731H10.01L15.7338 3.85084C16.6522 1.29727 17.0516 0.846639 18.5691 0.641807V0H13.1514V0.641807C15.1614 0.914916 15.3744 1.44748 14.589 3.78256L10.2629 16.6733L5.69717 3.3729C5.0183 1.40651 5.31115 0.87395 7.1614 0.641807V0H0V0.641807C1.45092 0.846639 1.89018 1.29727 2.63561 3.3729Z" fill="black"/>
<path d="M16.6256 13.0683C16.6256 17.2742 19.3544 19.9779 23.0416 19.9779C25.2512 19.9779 26.995 19.104 27.8602 17.875V17.2332C27.0882 18.0389 25.8902 18.5851 24.426 18.5851C21.4043 18.5851 19.3943 16.1134 19.2879 12.4811H28.0732C28.0998 12.2763 28.1265 11.9758 28.1265 11.6891C28.1265 8.35714 26.1697 6.11765 22.7488 6.11765C19.0483 6.11765 16.6256 9.02626 16.6256 13.0683ZM22.7354 6.9916C24.6256 6.9916 25.5973 8.72584 25.5973 11.2658C25.5973 11.4296 25.5973 11.5662 25.584 11.7027L19.2879 11.73C19.4077 8.63025 20.7255 6.9916 22.7354 6.9916Z" fill="black"/>
<path d="M30.6156 9.92752C30.6156 11.9758 32.0399 13.1366 34.396 13.8876L35.421 14.2153C37.218 14.7752 37.9767 15.4853 37.9767 16.7689C37.9767 18.0935 36.8852 19.063 35.1814 19.063C33.3444 19.063 31.574 17.7658 31.0682 15.2395H30.4958L30.629 18.8172C31.5208 19.459 33.2246 19.9506 35.1947 19.9506C37.8037 19.9506 40.213 18.4758 40.213 16.0179C40.213 13.8466 38.8419 12.5903 36.4992 11.8666L35.4742 11.5525C33.8103 11.02 32.8519 10.4191 32.8519 9.1355C32.8519 7.85189 33.8902 6.9916 35.5674 6.9916C37.2978 6.9916 38.6689 8.16597 39.0549 10.3782H39.6406L39.5607 7.00525C38.8952 6.54097 37.4709 6.11765 35.5541 6.11765C32.7055 6.11765 30.6156 7.49685 30.6156 9.92752Z" fill="black"/>
<path d="M56.0133 12.9181C56.0133 8.60294 53.4709 6.11765 50.609 6.11765C48.6922 6.11765 46.9883 7.10084 46.2696 8.58929V6.22689L41.97 6.73214V7.29202L42.8353 7.55147C43.5807 7.76996 43.6872 7.93382 43.6872 8.65756V24.0746C43.6872 24.9485 43.4875 25.167 41.97 25.3582V26H48.1864V25.3582C46.4958 25.1534 46.3095 24.9485 46.3095 23.9107V18.3803C46.9617 19.3225 48.1997 19.9779 49.7571 19.9779C53.2313 19.9779 56.0133 17.1376 56.0133 12.9181ZM53.2712 13.2185C53.2712 16.7143 51.6073 18.9947 49.1714 18.9947C47.8536 18.9947 46.7354 18.3256 46.3095 17.4653V9.16282C46.8952 8.09769 47.9334 7.5105 49.3311 7.5105C51.6606 7.5105 53.2712 9.72269 53.2712 13.2185Z" fill="black"/>
<path d="M60.7121 3.67332C61.604 3.67332 62.3228 2.96324 62.3228 2.07563C62.3228 1.17437 61.604 0.477941 60.7121 0.477941C59.8203 0.477941 59.1015 1.17437 59.1015 2.07563C59.1015 2.96324 59.8203 3.67332 60.7121 3.67332ZM62.2829 6.22689L57.9434 6.73214V7.29202L58.8087 7.55147C59.5541 7.76996 59.6606 7.93382 59.6606 8.65756V17.7521C59.6606 18.6534 59.4343 18.8718 57.9434 19.0767V19.7185H64V19.0767C62.5091 18.8718 62.2829 18.6534 62.2829 17.7521V6.22689Z" fill="black"/>
</svg>
