<svg width="71" height="29" viewBox="0 0 71 29" fill="none" xmlns="http://www.w3.org/2000/svg">
<path d="M0.896307 22H14.8629V18.1967H5.50923V0.181818H0.896307V22ZM25.226 22.3196C30.1905 22.3196 33.28 18.9212 33.28 13.8821C33.28 8.81108 30.1905 5.4233 25.226 5.4233C20.2615 5.4233 17.1721 8.81108 17.1721 13.8821C17.1721 18.9212 20.2615 22.3196 25.226 22.3196ZM25.2473 18.804C22.9569 18.804 21.785 16.7053 21.785 13.8501C21.785 10.995 22.9569 8.88565 25.2473 8.88565C27.4952 8.88565 28.6671 10.995 28.6671 13.8501C28.6671 16.7053 27.4952 18.804 25.2473 18.804ZM43.6032 28.4773C48.28 28.4773 51.6039 26.3466 51.6039 22.1598V5.63636H47.0975V8.38494H46.927C46.3198 7.05327 44.9881 5.4233 42.2502 5.4233C38.66 5.4233 35.6238 8.21449 35.6238 13.7862C35.6238 19.2301 38.5748 21.7656 42.2608 21.7656C44.8709 21.7656 46.3304 20.4553 46.927 19.1023H47.1188V22.0959C47.1188 24.3438 45.6806 25.2173 43.7097 25.2173C41.7069 25.2173 40.6948 24.3438 40.3219 23.353L36.1245 23.9176C36.6678 26.4957 39.1926 28.4773 43.6032 28.4773ZM43.699 18.3565C41.4725 18.3565 40.258 16.5881 40.258 13.7649C40.258 10.9844 41.4512 9.0348 43.699 9.0348C45.9043 9.0348 47.1401 10.8991 47.1401 13.7649C47.1401 16.652 45.883 18.3565 43.699 18.3565ZM62.6088 22.3196C67.5733 22.3196 70.6628 18.9212 70.6628 13.8821C70.6628 8.81108 67.5733 5.4233 62.6088 5.4233C57.6444 5.4233 54.5549 8.81108 54.5549 13.8821C54.5549 18.9212 57.6444 22.3196 62.6088 22.3196ZM62.6301 18.804C60.3397 18.804 59.1678 16.7053 59.1678 13.8501C59.1678 10.995 60.3397 8.88565 62.6301 8.88565C64.878 8.88565 66.0499 10.995 66.0499 13.8501C66.0499 16.7053 64.878 18.804 62.6301 18.804Z" fill="white"/>
</svg>
